<?xml version="1.0" encoding="UTF-8"?>
<svg id="Ebene_4_Kopie" xmlns="http://www.w3.org/2000/svg" version="1.1" viewBox="0 0 975.62 734.42">
  <!-- Generator: Adobe Illustrator 30.1.0, SVG Export Plug-In . SVG Version: 2.1.1 Build 136)  -->
  <defs>
    <style>
      .st0 {
        opacity: .34;
      }

      .st0, .st1, .st2 {
        fill: #616263;
      }

      .st0, .st1, .st2, .st3, .st4, .st5 {
        isolation: isolate;
      }

      .st1 {
        opacity: .13;
      }

      .st2 {
        opacity: .24;
      }

      .st6 {
        fill: #aba59d;
      }

      .st7 {
        fill: #b8b2a9;
      }

      .st8 {
        fill: #404036;
      }

      .st9 {
        fill: #171717;
      }

      .st10 {
        fill: #c2bcb3;
      }

      .st11 {
        fill: #2b2b25;
      }

      .st12 {
        fill: #fff;
        stroke: #000;
        stroke-miterlimit: 10;
      }

      .st13 {
        opacity: .1;
      }

      .st3 {
        opacity: .86;
      }

      .st3, .st4, .st5 {
        fill: #414042;
      }

      .st4 {
        opacity: .4;
      }

      .st5 {
        opacity: .3;
      }

      .st14 {
        fill: #cecabe;
      }
    </style>
  </defs>
  <path class="st3" d="M493.81,734.42c-166.6,0-338.75-4.64-465.57-13.11,126.78-8.46,298.92-13.11,465.57-13.11s326.79,4.64,453.57,13.11c-126.82,8.47-286.97,13.11-453.57,13.11Z"/>
  <path class="st10" d="M47.51,668.25v.22c0,27.91,22.63,50.54,50.54,50.54h180.13v-50.77H47.51Z"/>
  <path class="st10" d="M697.46,719.02h180.15c27.91,0,50.54-22.63,50.54-50.54v-.22h-230.69v50.77Z"/>
  <rect class="st6" x="328.47" y="668.25" width="318.69" height="50.77"/>
  <rect class="st7" x="278.18" y="668.25" width="47.99" height="50.77"/>
  <rect class="st7" x="649.47" y="668.25" width="47.99" height="50.77"/>
  <path class="st10" d="M278.18,660.44H64.02c-5.72,0-11.23-.82-16.51-2.23v10.04h230.67v-7.81h0Z"/>
  <path class="st4" d="M278.18,660.44H64.02c-5.72,0-11.23-.82-16.51-2.23v10.04h230.67v-7.81h0Z"/>
  <path class="st10" d="M697.46,660.44v7.81h230.69v-10.04c-5.28,1.41-10.79,2.23-16.51,2.23h-214.18,0Z"/>
  <path class="st4" d="M697.46,660.44v7.81h230.69v-10.04c-5.28,1.41-10.79,2.23-16.51,2.23h-214.18,0Z"/>
  <rect class="st6" x="328.47" y="660.44" width="318.69" height="7.81"/>
  <rect class="st4" x="328.47" y="660.44" width="318.69" height="7.81"/>
  <rect class="st7" x="278.18" y="660.44" width="47.99" height="7.81"/>
  <rect class="st4" x="278.18" y="660.44" width="47.99" height="7.81"/>
  <rect class="st7" x="649.47" y="660.44" width="47.99" height="7.81"/>
  <rect class="st4" x="649.47" y="660.44" width="47.99" height="7.81"/>
  <path class="st14" d="M911.61,0H64.02C28.66,0,0,28.66,0,64.02v532.4c0,29.64,20.17,54.5,47.51,61.79v-22.42h39.64c-29.84,0-54.11-24.27-54.11-54.11V78.76c0-29.84,24.27-54.11,54.11-54.11h801.33c29.84,0,54.11,24.27,54.11,54.11v502.92c0,29.84-24.27,54.11-54.11,54.11h39.64v22.42c27.34-7.29,47.51-32.15,47.51-61.79V64.02c0-35.36-28.66-64.02-64.02-64.02h0Z"/>
  <polygon class="st14" points="697.45 646.33 928.12 646.33 928.12 635.8 888.48 635.8 87.15 635.8 47.51 635.8 47.51 646.33 278.18 646.33 697.45 646.33"/>
  <path class="st14" d="M697.46,646.33v14.11h214.18c5.72,0,11.23-.82,16.51-2.23v-11.88h-230.69Z"/>
  <path class="st14" d="M278.18,660.44v-14.11H47.51v11.88c5.28,1.41,10.79,2.23,16.51,2.23h214.16Z"/>
  <polygon class="st14" points="278.18 660.44 326.17 660.44 328.47 660.44 647.16 660.44 649.46 660.44 697.45 660.44 697.45 646.33 278.18 646.33 278.18 660.44"/>
  <path class="st9" d="M942.59,581.68V78.76c0-29.84-24.27-54.11-54.11-54.11H87.15c-29.84,0-54.11,24.27-54.11,54.11v502.92c0,29.84,24.27,54.11,54.11,54.11h801.33c29.84,0,54.11-24.27,54.11-54.11ZM39.4,581.68V78.76c0-26.33,21.42-47.75,47.74-47.75h801.33c26.33,0,47.74,21.42,47.74,47.75v502.92c0,26.33-21.42,47.75-47.74,47.75H87.15c-26.33,0-47.74-21.42-47.74-47.75Z"/>
  <path class="st8" d="M936.22,581.68V78.76c0-26.33-21.42-47.75-47.74-47.75H87.15c-26.33,0-47.74,21.42-47.74,47.75v502.92c0,26.33,21.42,47.75,47.74,47.75h801.33c26.33,0,47.74-21.42,47.74-47.75h0ZM42.77,581.68V78.76c0-24.47,19.91-44.38,44.37-44.38h801.33c24.47,0,44.37,19.91,44.37,44.38v502.93c0,24.47-19.9,44.37-44.37,44.37H87.15c-24.47,0-44.37-19.91-44.37-44.37Z"/>
  <path class="st8" d="M932.85,581.68V78.76c0-24.47-19.9-44.38-44.37-44.38H87.15c-24.47,0-44.37,19.91-44.37,44.38v502.93c0,24.47,19.91,44.37,44.37,44.37h801.33c24.47,0,44.37-19.91,44.37-44.37ZM764.43,580.33c0,14.89-12.07,26.96-26.95,26.96H76.75c-14.89,0-26.95-12.07-26.95-26.96V80.11c0-14.89,12.07-26.96,26.95-26.96h660.72c14.89,0,26.95,12.07,26.95,26.96v500.22Z"/>
  <path class="st11" d="M737.47,53.16H76.75c-14.89,0-26.95,12.07-26.95,26.96v500.22c0,14.89,12.07,26.96,26.95,26.96h660.72c14.89,0,26.95-12.07,26.95-26.96V80.11c0-14.89-12.07-26.96-26.95-26.96ZM755.3,599.17c-14.08,14.08-50.02,1.08-81.53-28.95H140.45c-31.51,30.03-67.45,43.03-81.53,28.95-13.92-13.92-1.38-49.22,27.94-80.48V141.75c-29.32-31.26-41.86-66.55-27.94-80.48,14.08-14.08,50.02-1.08,81.53,28.95h533.33c31.51-30.03,67.45-43.03,81.53-28.95,13.92,13.92,1.38,49.22-27.94,80.48v376.95c29.32,31.26,41.86,66.55,27.94,80.48h0Z"/>
  <path class="st11" d="M695.78,91.37c12.57-9.7,25.41-16.26,35.25-17.64,3.26-.46,7.65-.51,10,1.84,3.02,3.02,2.74,10.33-.75,19.55-2.97,7.87-8.01,16.5-14.49,24.99,1.01,3.57,1.59,7.32,1.59,11.22v10.42c29.32-31.26,41.87-66.55,27.94-80.48-14.08-14.08-50.02-1.08-81.53,28.95h12.48c3.28,0,6.45.42,9.51,1.15Z"/>
  <path class="st2" d="M695.78,91.37c12.57-9.7,25.41-16.26,35.25-17.64,3.26-.46,7.65-.51,10,1.84,3.02,3.02,2.74,10.33-.75,19.55-2.97,7.87-8.01,16.5-14.49,24.99,1.01,3.57,1.59,7.32,1.59,11.22v10.42c29.32-31.26,41.87-66.55,27.94-80.48-14.08-14.08-50.02-1.08-81.53,28.95h12.48c3.28,0,6.45.42,9.51,1.15Z"/>
  <path class="st11" d="M717.1,92.5c1.93-.27,4.52-.3,5.91,1.08,1.79,1.78,1.62,6.11-.44,11.56-.48,1.28-1.09,2.61-1.75,3.95,2.17,3.37,3.86,7.07,4.98,11.02,6.48-8.49,11.52-17.13,14.49-24.99,3.49-9.23,3.77-16.54.75-19.55-2.35-2.35-6.73-2.29-10-1.84-9.83,1.38-22.68,7.94-35.25,17.64,4.05.96,7.87,2.52,11.35,4.58,3.61-1.83,7.02-3.04,9.96-3.46h0Z"/>
  <path class="st2" d="M717.1,92.5c1.93-.27,4.52-.3,5.91,1.08,1.79,1.78,1.62,6.11-.44,11.56-.48,1.28-1.09,2.61-1.75,3.95,2.17,3.37,3.86,7.07,4.98,11.02,6.48-8.49,11.52-17.13,14.49-24.99,3.49-9.23,3.77-16.54.75-19.55-2.35-2.35-6.73-2.29-10-1.84-9.83,1.38-22.68,7.94-35.25,17.64,4.05.96,7.87,2.52,11.35,4.58,3.61-1.83,7.02-3.04,9.96-3.46h0Z"/>
  <path class="st1" d="M717.1,92.5c1.93-.27,4.52-.3,5.91,1.08,1.79,1.78,1.62,6.11-.44,11.56-.48,1.28-1.09,2.61-1.75,3.95,2.17,3.37,3.86,7.07,4.98,11.02,6.48-8.49,11.52-17.13,14.49-24.99,3.49-9.23,3.77-16.54.75-19.55-2.35-2.35-6.73-2.29-10-1.84-9.83,1.38-22.68,7.94-35.25,17.64,4.05.96,7.87,2.52,11.35,4.58,3.61-1.83,7.02-3.04,9.96-3.46h0Z"/>
  <path class="st11" d="M723.01,93.58c-1.39-1.39-3.98-1.36-5.91-1.08-2.95.41-6.36,1.63-9.96,3.46,5.52,3.26,10.21,7.76,13.68,13.14.66-1.34,1.27-2.66,1.75-3.95,2.06-5.46,2.23-9.78.44-11.56h0Z"/>
  <path class="st2" d="M723.01,93.58c-1.39-1.39-3.98-1.36-5.91-1.08-2.95.41-6.36,1.63-9.96,3.46,5.52,3.26,10.21,7.76,13.68,13.14.66-1.34,1.27-2.66,1.75-3.95,2.06-5.46,2.23-9.78.44-11.56h0Z"/>
  <path class="st1" d="M723.01,93.58c-1.39-1.39-3.98-1.36-5.91-1.08-2.95.41-6.36,1.63-9.96,3.46,5.52,3.26,10.21,7.76,13.68,13.14.66-1.34,1.27-2.66,1.75-3.95,2.06-5.46,2.23-9.78.44-11.56h0Z"/>
  <path class="st0" d="M723.01,93.58c-1.39-1.39-3.98-1.36-5.91-1.08-2.95.41-6.36,1.63-9.96,3.46,5.52,3.26,10.21,7.76,13.68,13.14.66-1.34,1.27-2.66,1.75-3.95,2.06-5.46,2.23-9.78.44-11.56h0Z"/>
  <path class="st11" d="M88.45,120.11c-6.48-8.49-11.52-17.13-14.49-24.99-3.49-9.23-3.77-16.54-.75-19.55,2.35-2.35,6.73-2.29,10-1.84,9.83,1.38,22.67,7.94,35.24,17.64,3.06-.73,6.23-1.15,9.51-1.15h12.48c-31.51-30.03-67.45-43.03-81.53-28.95-13.92,13.92-1.38,49.22,27.94,80.48v-10.42c0-3.89.58-7.65,1.59-11.22Z"/>
  <path class="st2" d="M88.45,120.11c-6.48-8.49-11.52-17.13-14.49-24.99-3.49-9.23-3.77-16.54-.75-19.55,2.35-2.35,6.73-2.29,10-1.84,9.83,1.38,22.67,7.94,35.24,17.64,3.06-.73,6.23-1.15,9.51-1.15h12.48c-31.51-30.03-67.45-43.03-81.53-28.95-13.92,13.92-1.38,49.22,27.94,80.48v-10.42c0-3.89.58-7.65,1.59-11.22Z"/>
  <path class="st11" d="M91.68,105.14c-2.06-5.46-2.23-9.78-.44-11.56,1.39-1.39,3.98-1.36,5.91-1.08,2.95.41,6.35,1.63,9.96,3.46,3.49-2.06,7.3-3.62,11.35-4.58-12.57-9.7-25.41-16.26-35.24-17.64-3.26-.46-7.65-.51-10,1.84-3.02,3.02-2.74,10.33.75,19.55,2.97,7.87,8.01,16.5,14.49,24.99,1.12-3.95,2.8-7.65,4.98-11.02-.66-1.34-1.27-2.66-1.75-3.95h0Z"/>
  <path class="st2" d="M91.68,105.14c-2.06-5.46-2.23-9.78-.44-11.56,1.39-1.39,3.98-1.36,5.91-1.08,2.95.41,6.35,1.63,9.96,3.46,3.49-2.06,7.3-3.62,11.35-4.58-12.57-9.7-25.41-16.26-35.24-17.64-3.26-.46-7.65-.51-10,1.84-3.02,3.02-2.74,10.33.75,19.55,2.97,7.87,8.01,16.5,14.49,24.99,1.12-3.95,2.8-7.65,4.98-11.02-.66-1.34-1.27-2.66-1.75-3.95h0Z"/>
  <path class="st1" d="M91.68,105.14c-2.06-5.46-2.23-9.78-.44-11.56,1.39-1.39,3.98-1.36,5.91-1.08,2.95.41,6.35,1.63,9.96,3.46,3.49-2.06,7.3-3.62,11.35-4.58-12.57-9.7-25.41-16.26-35.24-17.64-3.26-.46-7.65-.51-10,1.84-3.02,3.02-2.74,10.33.75,19.55,2.97,7.87,8.01,16.5,14.49,24.99,1.12-3.95,2.8-7.65,4.98-11.02-.66-1.34-1.27-2.66-1.75-3.95h0Z"/>
  <path class="st11" d="M91.23,93.58c-1.79,1.78-1.62,6.11.44,11.56.48,1.28,1.09,2.61,1.75,3.95,3.47-5.38,8.16-9.87,13.68-13.14-3.61-1.83-7.02-3.04-9.96-3.46-1.93-.27-4.52-.3-5.91,1.08Z"/>
  <path class="st2" d="M91.23,93.58c-1.79,1.78-1.62,6.11.44,11.56.48,1.28,1.09,2.61,1.75,3.95,3.47-5.38,8.16-9.87,13.68-13.14-3.61-1.83-7.02-3.04-9.96-3.46-1.93-.27-4.52-.3-5.91,1.08Z"/>
  <path class="st1" d="M91.23,93.58c-1.79,1.78-1.62,6.11.44,11.56.48,1.28,1.09,2.61,1.75,3.95,3.47-5.38,8.16-9.87,13.68-13.14-3.61-1.83-7.02-3.04-9.96-3.46-1.93-.27-4.52-.3-5.91,1.08Z"/>
  <path class="st0" d="M91.23,93.58c-1.79,1.78-1.62,6.11.44,11.56.48,1.28,1.09,2.61,1.75,3.95,3.47-5.38,8.16-9.87,13.68-13.14-3.61-1.83-7.02-3.04-9.96-3.46-1.93-.27-4.52-.3-5.91,1.08Z"/>
  <path class="st11" d="M725.79,540.33c6.48,8.5,11.52,17.13,14.49,24.99,3.49,9.23,3.77,16.54.75,19.55-2.35,2.35-6.73,2.29-10,1.84-9.83-1.38-22.68-7.94-35.25-17.64-3.06.73-6.23,1.15-9.51,1.15h-12.48c31.51,30.03,67.45,43.03,81.53,28.95,13.92-13.92,1.38-49.22-27.94-80.48v10.42c0,3.89-.58,7.65-1.59,11.22h0Z"/>
  <path class="st2" d="M725.79,540.33c6.48,8.5,11.52,17.13,14.49,24.99,3.49,9.23,3.77,16.54.75,19.55-2.35,2.35-6.73,2.29-10,1.84-9.83-1.38-22.68-7.94-35.25-17.64-3.06.73-6.23,1.15-9.51,1.15h-12.48c31.51,30.03,67.45,43.03,81.53,28.95,13.92-13.92,1.38-49.22-27.94-80.48v10.42c0,3.89-.58,7.65-1.59,11.22h0Z"/>
  <path class="st11" d="M722.57,555.3c2.06,5.46,2.23,9.78.44,11.56-1.39,1.39-3.98,1.36-5.91,1.09-2.95-.41-6.36-1.63-9.96-3.46-3.49,2.06-7.3,3.62-11.36,4.58,12.57,9.7,25.41,16.26,35.25,17.64,3.26.46,7.65.51,10-1.84,3.02-3.02,2.74-10.33-.75-19.55-2.97-7.87-8.01-16.5-14.49-24.99-1.12,3.95-2.8,7.65-4.98,11.02.66,1.34,1.27,2.66,1.75,3.95h0Z"/>
  <path class="st2" d="M722.57,555.3c2.06,5.46,2.23,9.78.44,11.56-1.39,1.39-3.98,1.36-5.91,1.09-2.95-.41-6.36-1.63-9.96-3.46-3.49,2.06-7.3,3.62-11.36,4.58,12.57,9.7,25.41,16.26,35.25,17.64,3.26.46,7.65.51,10-1.84,3.02-3.02,2.74-10.33-.75-19.55-2.97-7.87-8.01-16.5-14.49-24.99-1.12,3.95-2.8,7.65-4.98,11.02.66,1.34,1.27,2.66,1.75,3.95h0Z"/>
  <path class="st1" d="M722.57,555.3c2.06,5.46,2.23,9.78.44,11.56-1.39,1.39-3.98,1.36-5.91,1.09-2.95-.41-6.36-1.63-9.96-3.46-3.49,2.06-7.3,3.62-11.36,4.58,12.57,9.7,25.41,16.26,35.25,17.64,3.26.46,7.65.51,10-1.84,3.02-3.02,2.74-10.33-.75-19.55-2.97-7.87-8.01-16.5-14.49-24.99-1.12,3.95-2.8,7.65-4.98,11.02.66,1.34,1.27,2.66,1.75,3.95h0Z"/>
  <path class="st11" d="M723.01,566.86c1.79-1.78,1.62-6.11-.44-11.56-.48-1.28-1.09-2.61-1.75-3.95-3.47,5.38-8.16,9.87-13.68,13.14,3.61,1.83,7.02,3.04,9.96,3.46,1.93.27,4.52.3,5.91-1.09h0Z"/>
  <path class="st2" d="M723.01,566.86c1.79-1.78,1.62-6.11-.44-11.56-.48-1.28-1.09-2.61-1.75-3.95-3.47,5.38-8.16,9.87-13.68,13.14,3.61,1.83,7.02,3.04,9.96,3.46,1.93.27,4.52.3,5.91-1.09h0Z"/>
  <path class="st1" d="M723.01,566.86c1.79-1.78,1.62-6.11-.44-11.56-.48-1.28-1.09-2.61-1.75-3.95-3.47,5.38-8.16,9.87-13.68,13.14,3.61,1.83,7.02,3.04,9.96,3.46,1.93.27,4.52.3,5.91-1.09h0Z"/>
  <path class="st0" d="M723.01,566.86c1.79-1.78,1.62-6.11-.44-11.56-.48-1.28-1.09-2.61-1.75-3.95-3.47,5.38-8.16,9.87-13.68,13.14,3.61,1.83,7.02,3.04,9.96,3.46,1.93.27,4.52.3,5.91-1.09h0Z"/>
  <path class="st11" d="M118.46,569.07c-12.57,9.7-25.41,16.26-35.24,17.64-3.26.46-7.65.51-10-1.84-3.02-3.02-2.74-10.33.75-19.55,2.97-7.87,8.01-16.5,14.49-24.99-1.01-3.57-1.59-7.32-1.59-11.22v-10.42c-29.32,31.26-41.86,66.55-27.94,80.48,14.08,14.08,50.02,1.08,81.53-28.95h-12.48c-3.28,0-6.45-.42-9.51-1.15Z"/>
  <path class="st2" d="M118.46,569.07c-12.57,9.7-25.41,16.26-35.24,17.64-3.26.46-7.65.51-10-1.84-3.02-3.02-2.74-10.33.75-19.55,2.97-7.87,8.01-16.5,14.49-24.99-1.01-3.57-1.59-7.32-1.59-11.22v-10.42c-29.32,31.26-41.86,66.55-27.94,80.48,14.08,14.08,50.02,1.08,81.53-28.95h-12.48c-3.28,0-6.45-.42-9.51-1.15Z"/>
  <path class="st11" d="M97.14,567.94c-1.93.27-4.52.3-5.91-1.09-1.79-1.78-1.62-6.11.44-11.56.48-1.28,1.09-2.61,1.75-3.95-2.17-3.37-3.86-7.07-4.98-11.02-6.48,8.5-11.52,17.13-14.49,24.99-3.49,9.23-3.77,16.54-.75,19.55,2.35,2.35,6.73,2.29,10,1.84,9.83-1.38,22.67-7.94,35.24-17.64-4.05-.96-7.86-2.52-11.35-4.58-3.61,1.83-7.02,3.04-9.96,3.46h0Z"/>
  <path class="st2" d="M97.14,567.94c-1.93.27-4.52.3-5.91-1.09-1.79-1.78-1.62-6.11.44-11.56.48-1.28,1.09-2.61,1.75-3.95-2.17-3.37-3.86-7.07-4.98-11.02-6.48,8.5-11.52,17.13-14.49,24.99-3.49,9.23-3.77,16.54-.75,19.55,2.35,2.35,6.73,2.29,10,1.84,9.83-1.38,22.67-7.94,35.24-17.64-4.05-.96-7.86-2.52-11.35-4.58-3.61,1.83-7.02,3.04-9.96,3.46h0Z"/>
  <path class="st1" d="M97.14,567.94c-1.93.27-4.52.3-5.91-1.09-1.79-1.78-1.62-6.11.44-11.56.48-1.28,1.09-2.61,1.75-3.95-2.17-3.37-3.86-7.07-4.98-11.02-6.48,8.5-11.52,17.13-14.49,24.99-3.49,9.23-3.77,16.54-.75,19.55,2.35,2.35,6.73,2.29,10,1.84,9.83-1.38,22.67-7.94,35.24-17.64-4.05-.96-7.86-2.52-11.35-4.58-3.61,1.83-7.02,3.04-9.96,3.46h0Z"/>
  <path class="st11" d="M91.23,566.86c1.39,1.39,3.98,1.36,5.91,1.09,2.95-.41,6.35-1.63,9.96-3.46-5.52-3.26-10.21-7.76-13.68-13.14-.66,1.34-1.27,2.66-1.75,3.95-2.06,5.46-2.23,9.78-.44,11.56h0Z"/>
  <path class="st2" d="M91.23,566.86c1.39,1.39,3.98,1.36,5.91,1.09,2.95-.41,6.35-1.63,9.96-3.46-5.52-3.26-10.21-7.76-13.68-13.14-.66,1.34-1.27,2.66-1.75,3.95-2.06,5.46-2.23,9.78-.44,11.56h0Z"/>
  <path class="st1" d="M91.23,566.86c1.39,1.39,3.98,1.36,5.91,1.09,2.95-.41,6.35-1.63,9.96-3.46-5.52-3.26-10.21-7.76-13.68-13.14-.66,1.34-1.27,2.66-1.75,3.95-2.06,5.46-2.23,9.78-.44,11.56h0Z"/>
  <path class="st0" d="M91.23,566.86c1.39,1.39,3.98,1.36,5.91,1.09,2.95-.41,6.35-1.63,9.96-3.46-5.52-3.26-10.21-7.76-13.68-13.14-.66,1.34-1.27,2.66-1.75,3.95-2.06,5.46-2.23,9.78-.44,11.56h0Z"/>
  <rect class="st6" x="326.17" y="668.25" width="2.3" height="50.77"/>
  <rect class="st5" x="326.17" y="668.25" width="2.3" height="50.77"/>
  <rect class="st6" x="326.17" y="660.44" width="2.3" height="7.81"/>
  <rect class="st4" x="326.17" y="660.44" width="2.3" height="7.81"/>
  <rect class="st5" x="326.17" y="660.44" width="2.3" height="7.81"/>
  <rect class="st6" x="647.17" y="668.25" width="2.3" height="50.77"/>
  <rect class="st5" x="647.17" y="668.25" width="2.3" height="50.77"/>
  <rect class="st6" x="647.17" y="660.44" width="2.3" height="7.81"/>
  <rect class="st4" x="647.17" y="660.44" width="2.3" height="7.81"/>
  <rect class="st5" x="647.17" y="660.44" width="2.3" height="7.81"/>
  <g class="st13">
    <path class="st12" d="M686.04,90.22H128.18c-22.68,0-41.07,18.4-41.07,41.11v397.78c0,22.7,18.39,41.11,41.07,41.11h557.86c22.68,0,41.07-18.4,41.07-41.11V131.33c0-22.7-18.39-41.11-41.07-41.11ZM717.01,529.11c0,17.09-13.89,31-30.97,31H128.18c-17.08,0-30.97-13.91-30.97-31V131.33c0-17.09,13.89-31,30.97-31h557.86c17.08,0,30.97,13.91,30.97,31v397.78Z"/>
  </g>
</svg>